PathFileType	4	(X/Y/Z)	C:\Users\Biomechanik\SynologyDrive\AlexP\Athlete_03\Athlete_3_25_03_31\Walking_05\marker_experimental.trc
DataRate	CameraRate	NumFrames	NumMarkers	Units	OrigDataRate	OrigDataStartFrame	OrigNumFrames
200.000000	200.000000	4	53	mm	200.000000	128	342
Frame#	Time	GLAB			RFHD			LFHD			C7			T6			SPINMOL			SPINM2			SPINM3			T12			BELTOL			BELT2			BELT3			SACROL			SACR2			SACR3			LTHOL			LTH2			LTH3			LSHAOL			LSHA2			LSHA3			LHEE			LTOE			LM5			RTHOL			RTH2			RTH3			RSHAOL			RSHA2			RSHA3			RHEE			RTOE			RM5			STRN			XIPH			LACR			LUAOL			LUA2			LUA3			LLAOL			LLA2			LLA3			LWRR			LWRU			RACR			RUAOL			RUA2			RUA3			RLAOL			RLA2			RLA3			RWRR			RWRU			
		X1	Y1	Z1	X2	Y2	Z2	X3	Y3	Z3	X4	Y4	Z4	X5	Y5	Z5	X6	Y6	Z6	X7	Y7	Z7	X8	Y8	Z8	X9	Y9	Z9	X10	Y10	Z10	X11	Y11	Z11	X12	Y12	Z12	X13	Y13	Z13	X14	Y14	Z14	X15	Y15	Z15	X16	Y16	Z16	X17	Y17	Z17	X18	Y18	Z18	X19	Y19	Z19	X20	Y20	Z20	X21	Y21	Z21	X22	Y22	Z22	X23	Y23	Z23	X24	Y24	Z24	X25	Y25	Z25	X26	Y26	Z26	X27	Y27	Z27	X28	Y28	Z28	X29	Y29	Z29	X30	Y30	Z30	X31	Y31	Z31	X32	Y32	Z32	X33	Y33	Z33	X34	Y34	Z34	X35	Y35	Z35	X36	Y36	Z36	X37	Y37	Z37	X38	Y38	Z38	X39	Y39	Z39	X40	Y40	Z40	X41	Y41	Z41	X42	Y42	Z42	X43	Y43	Z43	X44	Y44	Z44	X45	Y45	Z45	X46	Y46	Z46	X47	Y47	Z47	X48	Y48	Z48	X49	Y49	Z49	X50	Y50	Z50	X51	Y51	Z51	X52	Y52	Z52	X53	Y53	Z53	

129	0.64	192.1870269775389	1559.09033203125	246.2979125976563	142.8618164062499	1590.36376953125	308.9508361816406	150.4716186523436	1579.650512695312	171.3509216308594	-37.7453536987306	1405.394287109375	243.0963287353516	-98.83086395263683	1238.055541992188	244.7300415039062	-106.4903869628907	1197.087768554688	224.8414916992187	-114.9348754882814	1191.661499023438	274.8772277832031	-104.5454025268556	1133.682006835938	242.8657836914062	-82.03674316406261	1066.400390625	246.2752532958984	-114.7206649780274	1028.578491210938	225.56005859375	-117.9602508544923	1027.65234375	275.8819580078125	-121.1098937988282	967.008056640625	248.303726196289	-102.2333984375001	920.8936767578125	221.6306457519531	-109.633888244629	922.077880859375	273.360595703125	-121.8553009033204	862.2377319335938	246.1624145507812	96.95861816406244	641.1380615234375	73.88439941406251	73.55868530273433	569.8789672851562	98.01504516601564	119.6895294189453	585.90673828125	87.38745117187503	214.7780151367187	307.4937133789062	82.5242080688477	191.4991302490234	233.3406524658203	96.71689605712893	237.2997894287109	250.1609344482422	89.35389709472661	237.2539520263672	54.02491378784181	173.6085662841797	455.2182617187499	80.0109786987305	172.7129516601563	418.8059692382812	43.79024887084964	80.0926589965821	-102.9540252685548	686.258544921875	439.8658142089844	-69.50845336914075	618.6534423828125	460.9214172363281	-110.4705123901368	626.1953735351562	433.1668701171875	-249.0812072753907	380.6203308105469	436.0834045410156	-257.6464843750001	302.1373901367188	432.8213806152343	-290.5346984863282	337.280029296875	419.5615539550781	-425.6235046386719	173.5785217285156	311.7601013183593	-280.0133666992188	40.13765716552733	324.0806274414062	-322.5033569335938	47.81314849853513	427.7420043945312	130.8963928222655	1298.564086914062	248.1505737304688	144.5688476562499	1155.394897460938	256.4918518066406	37.37742614746084	1358.034301757812	70.04622650146484	-4.488498210907052	1203.404296875	-24.23817443847656	-32.3231163024903	1145.069091796875	-39.2526969909668	16.49241638183587	1140.930053710938	-24.89997673034668	-49.72694396972661	945.4364624023438	-65.76613616943361	-102.0995635986329	890.33984375	-43.36689376831057	-59.01010513305668	884.5558471679688	-67.93767547607423	-65.67961883544925	781.01953125	-76.30721282958986	-15.0886497497559	766.917236328125	-17.89815330505371	43.26702117919906	1364.642211914062	413.236328125	35.04506301879866	1223.203369140625	518.179443359375	64.45715332031233	1164.961547851562	529.574462890625	15.05266571044905	1165.605834960938	544.0791015625	115.0900421142577	959.8449096679688	574.251708984375	192.8354034423826	945.2218627929688	584.776611328125	157.4207153320311	914.5332641601562	567.0973510742188	234.4281616210936	866.4291381835938	561.8431396484375	265.0704650878905	885.7525634765625	488.4813842773438	
130	0.645	199.5929412841795	1559.473022460938	244.8564910888672	150.1960449218749	1590.73876953125	307.44873046875	157.9912872314452	1580.056274414062	169.8551483154297	-30.24771881103528	1405.655639648438	241.3772277832031	-91.12902832031261	1238.198852539062	243.3009796142578	-98.78229522705089	1197.226318359375	223.517349243164	-107.1507797241212	1191.850219726562	273.5447692871094	-96.70413208007824	1133.820190429688	241.6048736572265	-74.20399475097668	1066.640014648438	245.2209167480469	-106.5211181640626	1028.9833984375	224.8556518554687	-109.6191940307618	1028.008666992188	275.1792907714844	-112.8433837890626	967.388427734375	247.5487213134765	-94.41501617431651	920.9290771484375	220.9244232177734	-101.6439819335939	921.8606567382812	272.673583984375	-113.4285812377931	862.0009155273438	245.2652740478515	104.8744506835937	642.2039184570312	72.82575988769533	81.41065979003902	570.78125	96.46166229248048	127.5890502929687	586.8983764648438	86.14560699462893	221.3538513183593	308.3574523925781	81.26323699951176	196.8040771484374	234.5355529785156	94.76347351074223	242.8848571777343	250.6961059570313	88.34276580810551	238.2289886474609	54.87993621826173	173.3165740966797	456.9301147460937	76.13787078857425	172.9653625488282	419.6912841796875	40.95737075805667	80.11718750000007	-93.62508392333997	685.377197265625	439.1975708007812	-59.83104324340832	618.088134765625	460.6813659667969	-100.7303543090822	625.2377319335938	432.7672729492188	-239.938934326172	381.921630859375	436.6976928710937	-249.7785186767579	303.5960998535156	433.4069519042968	-282.0010681152344	339.2540588378906	419.9579467773437	-418.8707580566407	178.90087890625	312.1665649414062	-279.3313598632813	40.18320083618163	323.9363708496093	-320.9868469238282	49.12935256958006	427.7995605468749	138.433380126953	1299.054443359375	246.5901641845703	152.4079132080077	1155.931884765625	255.0125122070313	44.89303588867178	1358.02783203125	68.38030242919923	3.551262378692558	1203.085327148438	-25.58639144897461	-24.0658969879151	1144.65087890625	-40.59565353393555	24.74214935302728	1140.67431640625	-26.14863967895507	-40.65817260742192	944.8226318359375	-66.79644012451173	-92.97431945800786	889.6319580078125	-44.50474548339845	-49.74044418334965	883.9033203125	-68.82849121093751	-56.06436538696293	780.3568115234375	-77.01773071289064	-5.770970344543501	766.5213012695312	-18.2518310546875	50.62409973144515	1365.043701171875	411.6806335449219	42.01342391967756	1223.5078125	516.5372314453125	71.23179626464827	1165.177978515625	527.9810180664062	21.8211593627928	1165.962768554688	542.4188842773438	120.8620452880858	959.6972045898438	572.7945556640625	198.4738769531248	944.5935668945312	583.69140625	162.9306030273436	914.107666015625	565.8917846679688	239.7039642333983	865.569091796875	561.029296875	270.6456298828123	884.5361938476562	487.7179260253907	
131	0.65	206.9810333251952	1559.937133789062	243.4197387695313	157.5100097656249	1591.190307617188	305.9521789550782	165.4930877685546	1580.544189453125	168.3646087646485	-22.76557922363294	1405.995361328125	239.6680297851562	-83.45360565185558	1238.413940429688	241.8946990966797	-91.09869384765636	1197.439697265625	222.2183685302734	-99.38545989990247	1192.114868164062	272.232177734375	-88.89639282226574	1134.034790039062	240.3766326904297	-66.40009307861339	1066.961547851562	244.2117462158203	-98.38001251220713	1029.53076171875	224.23779296875	-101.3273468017579	1028.504760742188	274.5662231445312	-104.643653869629	967.9097290039062	246.874267578125	-86.63365936279307	921.0457153320312	220.2822265625	-93.65846252441418	921.7092895507812	272.0513305664062	-105.0338058471681	861.8439331054688	244.4247589111328	112.6389541625976	643.2860717773438	71.76387786865236	89.14779663085933	571.7076416015625	94.93712615966798	135.3582611083984	587.9152221679688	84.89863586425784	227.8362884521484	309.2642211914062	79.97502899169926	201.9760437011718	235.7758331298828	92.65858459472661	248.3513946533203	251.280014038086	87.31906127929692	239.1175384521484	55.74054336547853	173.0265350341797	458.4426269531249	72.56508636474612	173.2599182128907	420.4419860839844	38.46327209472659	80.11138153076179	-84.14499664306653	684.4356079101562	438.5452270507812	-49.93926239013684	617.4989624023438	460.4848022460938	-90.77706146240247	624.2089233398438	432.4102172851562	-230.4072570800782	383.2244567871094	437.3260498046874	-241.5288696289064	305.0788879394531	434.0180664062499	-273.0563659667969	341.2395629882812	420.3448486328124	-411.5584716796876	184.3756103515625	312.5131835937499	-278.3943481445313	40.35415649414061	323.7923278808593	-319.3132934570313	50.68792343139646	427.8151550292968	145.9498596191405	1299.642211914062	245.031494140625	160.2084350585936	1156.554443359375	253.5274353027344	52.39402008056631	1358.121704101562	66.72740173339845	11.62072944641107	1202.8701171875	-26.9330825805664	-15.76412487030036	1144.330932617188	-41.94165420532227	33.03473281860345	1140.528076171875	-27.39169883728027	-31.48333549499516	944.3064575195312	-67.83382415771484	-83.72241973876957	888.9993286132812	-45.65266799926759	-40.34296417236332	883.345947265625	-69.72860717773439	-46.27778625488285	779.7874145507812	-77.73925781250001	3.716426610946612	766.2382202148438	-18.6148509979248	57.96517562866195	1365.544555664062	410.1293029785156	48.9489669799803	1223.906127929688	514.8973999023438	77.9759216308592	1165.489868164062	526.3902587890625	28.55669784545881	1166.409912109375	540.7489624023438	126.5488281249998	959.62548828125	571.3404541015625	204.0118865966795	943.9908447265625	582.6209716796875	168.3252868652342	913.732177734375	564.703857421875	244.8316955566405	864.7119750976562	560.2521362304688	276.0932312011717	883.2902221679688	486.9941406250001	
132	0.655	214.3482055664061	1560.474365234375	241.9889831542969	164.801071166992	1591.711059570312	304.4630432128907	172.972930908203	1581.105102539062	166.880615234375	-15.30615520477308	1406.406372070312	237.9745330810547	-75.81088256835949	1238.697021484375	240.5157012939453	-83.44612884521496	1197.722900390625	220.9477844238281	-91.64665985107435	1192.450805664062	270.9434204101562	-81.13054656982433	1134.321899414062	239.1847076416015	-58.62932968139659	1067.35791015625	243.2449798583984	-90.31333160400401	1030.210083007812	223.6991424560547	-93.10282135009777	1029.13037109375	274.0352783203125	-96.52529144287119	968.5609741210938	246.2726287841797	-78.89546966552744	921.2391357421875	219.7014617919922	-85.6851043701173	921.6240234375	271.4908752441406	-96.68573760986338	861.7667846679688	243.641616821289	120.2735290527343	644.3639526367188	70.6933288574219	96.77991485595699	572.6351928710938	93.42327880859376	143.0123596191406	588.9352416992188	83.64577484130862	234.1740722656249	310.1713562011719	78.70343017578129	206.9819183349609	237.0223236083984	90.50155639648442	253.6599121093749	251.8731994628907	86.31922912597661	239.930191040039	56.58958816528322	172.7558746337891	459.7705078124999	69.29856109619143	173.601776123047	421.0691833496094	36.31483459472659	80.08011627197273	-74.52139282226575	683.4326171875	437.9151000976562	-39.84152603149426	616.88525390625	460.3371887207031	-80.62011718750013	623.1090087890625	432.1033630371094	-220.4854736328126	384.5246887207031	437.9655761718749	-232.8956146240236	306.5816955566406	434.6504211425781	-263.6994018554688	343.2315673828125	420.7202148437499	-403.6846008300782	189.9930419921875	312.7944335937499	-277.1625671386719	40.6740036010742	323.6564025878906	-317.4605407714844	52.52191162109373	427.7842407226562	153.4423522949217	1300.318237304688	243.481674194336	167.9637603759764	1157.25341796875	252.0453491210938	59.87938690185537	1358.313720703125	65.09505462646486	19.71841430664055	1202.759521484375	-28.27542114257812	-7.420159339904847	1144.111083984375	-43.28830718994141	41.36710357666009	1140.491821289062	-28.62542915344238	-22.20793914794926	943.8915405273438	-68.87712097167969	-74.34706878662114	888.4439086914062	-46.80992507934572	-30.82146835327152	882.8873901367188	-70.63839721679688	-36.32112884521488	779.3150024414062	-78.47250366210938	13.37407398223873	766.0723876953125	-18.98969459533691	65.28804779052719	1366.141845703125	408.5860595703125	55.85179519653303	1224.397583007812	513.265625	84.69026947021467	1165.896850585938	524.8062133789062	35.25969314575178	1166.94580078125	539.0736083984375	132.1526641845701	959.6309204101562	569.8922119140625	209.4506988525389	943.4168090820312	581.5684814453125	173.6073455810545	913.4090576171875	563.5352783203125	249.8130035400389	863.8612670898438	559.5125732421875	281.4149169921873	882.0181274414062	486.3115539550782	
